<svg width="1920" height="585" viewBox="0 0 1920 585" fill="none" xmlns="http://www.w3.org/2000/svg">
<path d="M1672.81 164.602C1836.75 71.4007 1927.3 283.583 1935.19 283.583V585H-10.1862V321.714C64.2402 233.669 254.327 57.212 360.651 94.4926C466.974 131.773 593.799 197.52 772.148 251.061C950.496 304.603 963.136 64.72 1175.78 7.21282C1388.43 -50.2944 1508.87 257.804 1672.81 164.602Z" fill="#A56063"/>
<path d="M-12.7847 324.903C-18.3579 335.711 84.6984 14.2269 248.671 93.6253C253.169 95.8032 257.679 98.1492 262.201 100.636L487.832 217.55C609.44 268.704 706.221 151.181 822.094 177.872C1034.78 226.862 996.12 318.112 1174.5 272.5C1352.88 226.888 1460.76 198.895 1567.1 167.136C1673.44 135.376 1863.56 285.7 1938 360.706V584.999L-12.7847 585V324.903Z" fill="#C97582"/>
</svg>
