<svg width="66" height="66" viewBox="0 0 66 66" fill="none" xmlns="http://www.w3.org/2000/svg">
<g filter="url(#filter0_d_219_2)">
<path fill-rule="evenodd" clip-rule="evenodd" d="M20.7473 0.350171C16.1026 0.559739 12.0769 1.6953 8.82617 4.93229C5.56411 8.18628 4.44265 12.228 4.23256 16.8244C4.10196 19.6932 3.3383 41.3666 5.55276 47.0505C7.0461 50.885 9.98728 53.8333 13.8569 55.3314C15.6625 56.0338 17.7237 56.5092 20.7473 56.648C46.029 57.7921 55.4007 57.1692 59.3526 47.0505C60.0539 45.2493 60.5365 43.1899 60.6699 40.1738C61.8254 14.8273 60.4826 9.33324 56.0764 4.93229C52.5816 1.44608 48.4706 -0.927065 20.7473 0.350171ZM20.9801 51.5504C18.212 51.4258 16.7102 50.9645 15.708 50.5766C13.1869 49.5967 11.2933 47.7109 10.3195 45.2045C8.63308 40.8857 9.1924 20.3734 9.34286 17.0542C9.49049 13.8031 10.1491 10.8317 12.4431 8.5378C15.2821 5.70577 18.9501 4.31782 43.9252 5.44498C47.1845 5.59223 50.1627 6.24954 52.4623 8.5378C55.3013 11.3698 56.7095 15.0661 55.5625 39.9453C55.4376 42.7065 54.9749 44.2048 54.5859 45.2045C52.0166 51.7889 46.1056 52.703 20.9801 51.5504ZM44.2006 13.3804C44.2006 15.2553 45.7253 16.7798 47.6075 16.7798C49.4898 16.7798 51.0172 15.2553 51.0172 13.3804C51.0172 11.5057 49.4898 9.98252 47.6075 9.98252C45.7253 9.98252 44.2006 11.5057 44.2006 13.3804ZM17.8742 28.4977C17.8742 36.5293 24.4012 43.0409 32.4527 43.0409C40.5042 43.0409 47.0312 36.5293 47.0312 28.4977C47.0312 20.4661 40.5042 13.9586 32.4527 13.9586C24.4012 13.9586 17.8742 20.4661 17.8742 28.4977ZM22.9901 28.4977C22.9901 23.2868 27.226 19.059 32.4527 19.059C37.6794 19.059 41.9152 23.2868 41.9152 28.4977C41.9152 33.7114 37.6794 37.9406 32.4527 37.9406C27.226 37.9406 22.9901 33.7114 22.9901 28.4977Z" fill="#212121"/>
</g>
<defs>
<filter id="filter0_d_219_2" x="0" y="0" width="65.064" height="65.0642" filterUnits="userSpaceOnUse" color-interpolation-filters="sRGB">
<feFlood flood-opacity="0" result="BackgroundImageFix"/>
<feColorMatrix in="SourceAlpha" type="matrix" values="0 0 0 0 0 0 0 0 0 0 0 0 0 0 0 0 0 0 127 0" result="hardAlpha"/>
<feOffset dy="4"/>
<feGaussianBlur stdDeviation="2"/>
<feComposite in2="hardAlpha" operator="out"/>
<feColorMatrix type="matrix" values="0 0 0 0 0 0 0 0 0 0 0 0 0 0 0 0 0 0 0.25 0"/>
<feBlend mode="normal" in2="BackgroundImageFix" result="effect1_dropShadow_219_2"/>
<feBlend mode="normal" in="SourceGraphic" in2="effect1_dropShadow_219_2" result="shape"/>
</filter>
</defs>
</svg>
