<svg width="510" height="132" viewBox="0 0 510 132" fill="none" xmlns="http://www.w3.org/2000/svg">
<g filter="url(#filter0_d_60_453)">
<path d="M447.518 104.955C450.496 103.293 448.429 55.348 447 8H462.182C460.355 40.7295 461.595 60.132 462.182 93.9828C464.185 96.9849 475.807 95.403 506 92.7236L505.455 104.955H447.518C447.412 105.014 447.3 105.015 447.182 104.955H447.518Z" fill="#212121"/>
<path d="M377.841 48.1871C391.316 49.222 398.944 49.297 412.713 48.1871V58.7986C399.236 57.875 391.611 57.848 377.841 58.7986V95.4892C377.841 97.1079 421.854 96.4287 422 95.4892V106.281L363 107C365.408 69.3564 365.638 46.9627 363.091 7H422V16.1599C422 16.1641 422 16.1684 422 16.1727V16.1599C421.864 14.7791 377.841 13.5728 377.841 16.1727V48.1871Z" fill="#212121"/>
<path fill-rule="evenodd" clip-rule="evenodd" d="M51.8871 4.0309C65.0094 3.48915 93.1861 9.86368 100.915 39.6957C108.644 69.5278 92.5781 91.2517 83.5792 98.3846C98.0209 107.815 106.033 111.504 120.237 116.714L105.52 128L70.7579 103.983C67.1463 106.029 56.8531 109.815 44.5736 108.587C29.2242 107.053 14.1456 91.342 8.72819 82.2226C3.31074 73.1032 1.59522 52.0655 8.72819 32.2919C15.8612 12.5182 36.3571 4.0309 51.8871 4.0309ZM51.9453 12.1259C61.5161 12.0657 81.7954 19.2047 86.346 47.1587C92.0343 82.1012 68.9199 103.5 53.6608 100.701C38.4017 97.9021 17.093 87.9702 19.9823 47.1587C22.2938 14.5096 42.1939 11.855 51.9453 12.1259Z" fill="#212121"/>
<path d="M124.59 7.00003H140.128C140.128 7.00003 140.128 7.00003 140.129 7.00003H140.128C139.261 7.00429 138.942 52.3231 140.129 81.8288C141.315 111.337 189.09 97.8827 191.8 81.8288C194.51 65.7748 192 7.0001 191.8 7.00003C191.601 6.99996 202 7.00003 202 7.00003V79.6386C202 113.115 128.43 121.884 125.89 78.7536C123.349 35.6228 125.708 7.00183 124.59 7.00003Z" fill="#212121"/>
<path d="M230.068 7.00003C230.069 7.00003 230.069 7.00015 230.07 7.00038C230.803 7.00504 245.741 7.05417 246.926 7.0113C246.933 7.00339 246.94 6.99962 246.948 7.00003C247.026 7.00435 247.015 7.00808 246.926 7.0113C245.783 8.23253 245.967 108 246.948 108H230.068C231.413 108 230.877 7.21669 230.07 7.00038C230.035 7.00015 230.033 7.00003 230.068 7.00003Z" fill="#212121"/>
<path d="M342 7H266V17.8303C282.405 15.426 288.133 15.8214 295.755 17.8303C297.058 52.6542 297.109 72.1762 295.755 107H311.887C311.146 69.323 310.476 51.0831 311.887 17.8303C320.49 15.7331 327.129 15.7535 342 17.8303V7Z" fill="#212121"/>
</g>
<defs>
<filter id="filter0_d_60_453" x="0" y="0" width="510" height="132" filterUnits="userSpaceOnUse" color-interpolation-filters="sRGB">
<feFlood flood-opacity="0" result="BackgroundImageFix"/>
<feColorMatrix in="SourceAlpha" type="matrix" values="0 0 0 0 0 0 0 0 0 0 0 0 0 0 0 0 0 0 127 0" result="hardAlpha"/>
<feOffset/>
<feGaussianBlur stdDeviation="2"/>
<feComposite in2="hardAlpha" operator="out"/>
<feColorMatrix type="matrix" values="0 0 0 0 0 0 0 0 0 0 0 0 0 0 0 0 0 0 0.25 0"/>
<feBlend mode="normal" in2="BackgroundImageFix" result="effect1_dropShadow_60_453"/>
<feBlend mode="normal" in="SourceGraphic" in2="effect1_dropShadow_60_453" result="shape"/>
</filter>
</defs>
</svg>
