<svg width="75" height="64" viewBox="0 0 75 64" fill="none" xmlns="http://www.w3.org/2000/svg">
<g filter="url(#filter0_d_219_3)">
<path fill-rule="evenodd" clip-rule="evenodd" d="M46.5976 6.39958C41.1463 6.39958 36.7274 10.8206 36.7274 16.2742C36.7274 16.9416 36.793 17.5904 36.9174 18.2156C37.1176 19.2225 36.8228 20.2645 36.1246 21.017C35.4263 21.7696 34.4096 22.1411 33.3909 22.016C26.3282 21.1492 19.9037 18.2296 14.7303 13.8773C14.8311 15.8033 15.4985 17.8493 16.9468 19.9926L19.1178 23.2054L15.5527 24.7275L14.8649 25.0212C15.3762 25.6062 15.9909 26.2071 16.6772 26.7974C17.4559 27.4672 18.2085 28.0239 18.7676 28.413C19.0452 28.6063 19.2705 28.7551 19.4215 28.8527C19.4968 28.9013 19.5533 28.9368 19.5882 28.9586L19.6237 28.9807L19.6264 28.9826L24.5797 31.9869L19.3967 34.5796C19.1401 34.708 18.884 34.8225 18.629 34.9243C19.6694 35.8013 20.9358 36.609 22.283 37.246L26.7282 39.3483L23.0054 42.5615C20.9733 44.3157 18.9291 45.6231 16.2799 46.3142C20.2054 48.4098 24.7034 49.6004 29.4889 49.6004C44.8574 49.6004 57.2353 37.3305 57.2353 22.2934V20.6305L58.5953 19.6747C60.7183 18.1832 62.2193 16.1661 63.294 13.8602H58.4034H56.3839L55.5159 12.036C53.9266 8.69665 50.5271 6.39958 46.5976 6.39958ZM10.5208 29.7569C9.91786 30.4478 9.63199 31.3763 9.76312 32.3078C10.1239 34.8708 11.6581 37.0784 13.3533 38.7634C13.8137 39.2209 14.306 39.6603 14.823 40.0791C14.744 40.1012 14.6644 40.1223 14.5841 40.1425C13.0445 40.5281 10.97 40.6084 7.51026 40.2692C6.17268 40.138 4.89589 40.8576 4.31465 42.07C3.73342 43.2821 3.97176 44.7287 4.91118 45.6903C11.1224 52.0479 19.845 56 29.4889 56C47.7599 56 62.7467 41.8067 63.5943 23.8946C67.718 20.4289 69.7825 15.7375 70.8962 11.4686C71.1466 10.5096 70.9384 9.48872 70.3326 8.70432C69.7272 7.91993 68.7923 7.4606 67.8018 7.4606H60.2741C57.3809 2.97606 52.339 0 46.5976 0C38.0612 0 31.0603 6.57845 30.3841 14.9445C24.4065 13.3947 19.1617 10.0126 15.2857 5.42566C14.5788 4.58901 13.4931 4.17237 12.4082 4.32138C11.3233 4.47039 10.39 5.16433 9.93462 6.16065C8.00064 10.3914 7.62793 15.2713 9.79265 20.2291L9.04519 20.5483C7.56499 21.1802 6.78481 22.8143 7.22353 24.3634C7.81478 26.4512 9.15339 28.2946 10.5208 29.7569Z" fill="#212121"/>
</g>
<defs>
<filter id="filter0_d_219_3" x="0" y="0" width="75" height="64" filterUnits="userSpaceOnUse" color-interpolation-filters="sRGB">
<feFlood flood-opacity="0" result="BackgroundImageFix"/>
<feColorMatrix in="SourceAlpha" type="matrix" values="0 0 0 0 0 0 0 0 0 0 0 0 0 0 0 0 0 0 127 0" result="hardAlpha"/>
<feOffset dy="4"/>
<feGaussianBlur stdDeviation="2"/>
<feComposite in2="hardAlpha" operator="out"/>
<feColorMatrix type="matrix" values="0 0 0 0 0 0 0 0 0 0 0 0 0 0 0 0 0 0 0.25 0"/>
<feBlend mode="normal" in2="BackgroundImageFix" result="effect1_dropShadow_219_3"/>
<feBlend mode="normal" in="SourceGraphic" in2="effect1_dropShadow_219_3" result="shape"/>
</filter>
</defs>
</svg>
